<?xml version="1.0" encoding="utf-8"?>
<!-- Generator: Adobe Illustrator 23.1.1, SVG Export Plug-In . SVG Version: 6.00 Build 0)  -->
<svg version="1.1" id="Layer_1" focusable="false" xmlns="http://www.w3.org/2000/svg" xmlns:xlink="http://www.w3.org/1999/xlink"
	 x="0px" y="0px" viewBox="0 0 336.1 38.1" style="enable-background:new 0 0 336.1 38.1;" xml:space="preserve">
<style type="text/css">
	.st0{fill:#FFFFFF;}
</style>
<path class="st0" d="M19,30.2h-3.2c-0.3,0-0.7-0.1-0.9-0.4L3.6,16v13.4c0,0.4-0.3,0.8-0.7,0.8c0,0,0,0,0,0H0.7
	c-0.4,0-0.7-0.4-0.7-0.8c0,0,0,0,0,0V1.4c0-0.4,0.3-0.8,0.8-0.8h2.1c0.4,0,0.8,0.3,0.8,0.8v12.8L15.1,1c0.2-0.2,0.5-0.4,0.8-0.4h2.8
	c0.4,0,0.6,0.2,0.6,0.5c0,0.1-0.1,0.3-0.2,0.4L7.1,15l12.1,14.6c0.1,0.1,0.1,0.2,0.1,0.3C19.4,30.1,19.2,30.2,19,30.2
	C19,30.2,19,30.2,19,30.2z M38.7,20.4H25.3v0.5c0,4.6,2.2,6.7,5.8,6.7c2.3,0,4.6-0.2,6.8-0.5h0.2c0.3,0,0.6,0.2,0.6,0.5
	c0,0,0,0,0,0.1v1.4c0,0.5-0.2,0.8-0.8,0.9c-2.3,0.5-4.6,0.7-6.9,0.7c-4.6,0-9.4-2.2-9.4-9.8v-2.8c0-5.7,3.2-9.9,8.9-9.9
	s8.8,4.1,8.8,9.8v1.7C39.5,20,39.2,20.4,38.7,20.4z M35.9,17.5c0-4.3-1.7-6.4-5.2-6.4s-5.4,2.3-5.4,6.4v0.2h10.6V17.5z M59.7,30.2
	h-2.1c-0.4,0-0.7-0.3-0.7-0.8c0,0,0,0,0,0V15.2c0-3-0.8-4.1-3.5-4.1h-2.8c-2.7,0-3.5,1.2-3.5,4.1v14.2c0,0.4-0.3,0.8-0.7,0.8
	c0,0,0,0,0,0h-2.1c-0.4,0-0.7-0.3-0.7-0.8c0,0,0,0,0,0V15.2c0-6.2,4.3-7.2,7-7.2h2.8c2.7,0,7,1,7,7.2v14.2
	C60.5,29.8,60.2,30.2,59.7,30.2C59.8,30.2,59.7,30.2,59.7,30.2z M75,30.2c-1.3,0.2-2.6,0.2-3.8,0.2c-3.8,0-5.9-1.2-5.9-5.5V4.4
	c0-0.4,0.4-0.7,0.8-0.8l2-0.3h0.1c0.4,0,0.7,0.4,0.7,0.8c0,0,0,0,0,0v4.2H75c0.4,0,0.7,0.3,0.8,0.6c0,0,0,0.1,0,0.1v1.4
	c0,0.4-0.3,0.7-0.7,0.7c0,0,0,0,0,0h-6.2v13.9c0,2.3,0.8,2.7,3,2.7H75c0.6,0,0.8,0.2,0.8,0.6v1.4C75.8,29.9,75.6,30.2,75,30.2z
	 M106.1,30c-2.2,0.4-4.4,0.6-6.6,0.5c-4.9,0-10.6-2.6-10.6-12.3v-5.6c0-9.8,5.6-12.3,10.5-12.3c2.2,0,4.5,0.3,6.7,0.6
	c0.4,0,0.6,0.2,0.6,0.5v2c0,0.2-0.1,0.4-0.5,0.4h-0.1c-1.4-0.1-4.4-0.4-6.7-0.4c-3.9,0-7,2.3-7,9v5.5c0,6.7,3,9,7,9
	c2.3,0,5.2-0.2,6.6-0.3h0.2c0.4,0,0.6,0.2,0.6,0.6V29C106.9,29.6,106.5,29.9,106.1,30z M118.6,30.5c-5.9,0-8.9-3.9-8.9-9.7v-3
	c0-5.9,3-9.7,8.9-9.7s8.9,3.9,8.9,9.7v3C127.5,26.6,124.4,30.5,118.6,30.5z M124,17.7c0-4.1-1.6-6.7-5.4-6.7s-5.4,2.6-5.4,6.7v3
	c0,4.1,1.6,6.7,5.4,6.7s5.4-2.5,5.4-6.6V17.7z M140.2,30.5h-0.4c-2.7,0-8.2-1.5-8.2-9.4v-12c0-0.4,0.3-0.8,0.7-0.8c0,0,0,0,0,0h2.1
	c0.4,0,0.7,0.3,0.7,0.8c0,0,0,0,0,0v12c0,4.8,2,6.3,4.7,6.3h0.4c2.7,0,4.7-1.5,4.7-6.3v-12c0-0.4,0.3-0.8,0.7-0.8c0,0,0,0,0,0h2.1
	c0.4,0,0.7,0.3,0.7,0.8c0,0,0,0,0,0v12C148.4,29,142.9,30.5,140.2,30.5L140.2,30.5z M169.4,30.2h-2.1c-0.4,0-0.7-0.3-0.7-0.8
	c0,0,0,0,0,0V15.2c0-3-0.8-4.1-3.5-4.1h-2.8c-2.7,0-3.5,1.2-3.5,4.1v14.2c0,0.4-0.3,0.8-0.7,0.8c0,0,0,0,0,0H154
	c-0.4,0-0.7-0.3-0.7-0.8c0,0,0,0,0,0V15.2c0-6.1,4.3-7.2,7-7.2h2.8c2.7,0,7,1,7,7.2v14.2C170.2,29.8,169.9,30.2,169.4,30.2
	C169.4,30.2,169.4,30.2,169.4,30.2L169.4,30.2z M184.7,30.2c-1.3,0.2-2.6,0.2-3.8,0.2c-3.8,0-5.9-1.2-5.9-5.5V4.4
	c0-0.4,0.4-0.7,0.8-0.8l2-0.3h0.1c0.4,0,0.7,0.4,0.7,0.8c0,0,0,0,0,0v4.2h6.2c0.4,0,0.7,0.3,0.8,0.6c0,0,0,0.1,0,0.1v1.4
	c0,0.4-0.3,0.7-0.7,0.7c0,0,0,0,0,0h-6.2v13.9c0,2.3,0.8,2.7,3,2.7h3.2c0.6,0,0.8,0.2,0.8,0.6v1.4C185.5,29.9,185.3,30.2,184.7,30.2
	z M197.3,38.1c-2.2,0-4.4-0.2-6.6-0.7c-0.6-0.2-0.8-0.4-0.8-0.8v-1.1c0-0.4,0.3-0.7,0.7-0.7c0,0,0,0,0,0h0.1
	c2.2,0.3,4.3,0.4,6.5,0.5c3.6,0,4.7-0.9,4.7-5.1V30c-1.5,0.3-2.9,0.5-4.4,0.5c-4.6,0-9-1.6-9-8.2V9.1c0-0.4,0.4-0.8,0.8-0.8l0,0h1.9
	c0.4,0,0.8,0.4,0.8,0.8c0,0,0,0,0,0v13.2c0,4.3,2.1,5.3,5.4,5.3c1.5,0,2.9-0.2,4.4-0.5V9.1c0-0.4,0.4-0.8,0.8-0.8l0,0h1.9
	c0.4,0,0.8,0.4,0.8,0.8c0,0,0,0,0,0v21.1C205.4,36.5,202.7,38.1,197.3,38.1z M237.4,30c-2.2,0.4-4.4,0.6-6.6,0.5
	c-4.9,0-10.6-2.6-10.6-12.3v-5.6c0-9.8,5.6-12.3,10.6-12.3c2.2,0,4.5,0.3,6.7,0.6c0.4,0,0.6,0.2,0.6,0.5v2c0,0.2-0.1,0.4-0.5,0.4
	h-0.1c-1.4-0.1-4.4-0.4-6.7-0.4c-3.9,0-7,2.3-7,9v5.5c0,6.7,3,9,7,9c2.3,0,5.1-0.2,6.6-0.3h0.2c0.4,0,0.6,0.2,0.6,0.6V29
	C238.2,29.6,237.9,29.9,237.4,30z M249.9,30.5c-5.9,0-8.9-3.9-8.9-9.7v-3c0-5.9,3-9.7,8.9-9.7s8.9,3.9,8.9,9.7v3
	C258.8,26.6,255.8,30.5,249.9,30.5z M255.3,17.7c0-4.1-1.6-6.7-5.4-6.7s-5.4,2.6-5.4,6.7v3c0,4.1,1.6,6.7,5.4,6.7s5.4-2.5,5.4-6.7
	V17.7z M271.5,30.5h-0.4c-2.7,0-8.2-1.5-8.2-9.4v-12c0-0.4,0.3-0.8,0.7-0.8c0,0,0,0,0,0h2.1c0.4,0,0.7,0.3,0.7,0.8c0,0,0,0,0,0v12
	c0,4.8,2,6.3,4.7,6.3h0.4c2.7,0,4.7-1.5,4.7-6.3v-12c0-0.4,0.3-0.8,0.7-0.8c0,0,0,0,0,0h2c0.4,0,0.7,0.3,0.7,0.8c0,0,0,0,0,0v12
	C279.8,29,274.2,30.5,271.5,30.5z M299.9,30.2h-2.1c-0.4,0-0.7-0.3-0.7-0.8c0,0,0,0,0,0V15.2c0-3-0.8-4.1-3.5-4.1h-2.8
	c-2.7,0-3.5,1.2-3.5,4.1v14.2c0,0.4-0.3,0.8-0.7,0.8c0,0,0,0,0,0h-2.1c-0.4,0-0.7-0.3-0.7-0.8c0,0,0,0,0,0V15.2c0-6.1,4.3-7.2,7-7.2
	h2.8c2.7,0,7,1,7,7.2v14.2C300.7,29.8,300.4,30.2,299.9,30.2C300,30.2,299.9,30.2,299.9,30.2z M318.2,30c-1.7,0.3-3.3,0.4-5,0.4
	c-5.4,0-8.5-3.8-8.5-9.7v-3.1c0-5.9,3-9.7,8.5-9.7c1.7,0,3.3,0.2,5,0.4c0.6,0.1,0.8,0.3,0.8,0.9v1.4c0,0.3-0.3,0.6-0.6,0.6
	c0,0,0,0-0.1,0h-0.2c-1.7-0.2-3.3-0.3-5-0.3c-3.2,0-5,2.1-5,6.6v3.1c0,4.5,1.8,6.6,5,6.6c1.7,0,3.3-0.1,5-0.3h0.2
	c0.3,0,0.6,0.2,0.7,0.5c0,0,0,0,0,0.1v1.4C319,29.7,318.9,29.9,318.2,30z M326.2,4.8h-2c-0.4,0-0.8-0.4-0.8-0.8V0.8
	c0-0.4,0.4-0.8,0.8-0.8h2c0.4,0,0.8,0.4,0.8,0.8V4C327,4.4,326.6,4.8,326.2,4.8z M326.1,30.2h-1.9c-0.4,0-0.8-0.4-0.8-0.8V9.1
	c0-0.4,0.4-0.8,0.8-0.8h1.9c0.4,0,0.8,0.4,0.8,0.8v20.3C326.9,29.9,326.5,30.2,326.1,30.2C326.1,30.2,326.1,30.2,326.1,30.2
	L326.1,30.2z M335.4,30.2h-2.1c-0.4,0-0.7-0.4-0.7-0.8c0,0,0,0,0,0V1c0-0.4,0.3-0.7,0.7-0.8c0,0,0,0,0,0h2.1c0.4,0,0.7,0.3,0.7,0.7
	c0,0,0,0,0,0v28.4C336.1,29.8,335.8,30.2,335.4,30.2C335.4,30.2,335.4,30.2,335.4,30.2z"/>
</svg>
