<?xml version="1.0" encoding="utf-8"?>
<!-- Generator: Adobe Illustrator 23.1.1, SVG Export Plug-In . SVG Version: 6.00 Build 0)  -->
<svg version="1.1" id="Layer_1" focusable="false" xmlns="http://www.w3.org/2000/svg" xmlns:xlink="http://www.w3.org/1999/xlink"
	 x="0px" y="0px" viewBox="0 0 51.6 25.7" style="enable-background:new 0 0 51.6 25.7;" xml:space="preserve">
<style type="text/css">
	.st0{fill:#FFFFFF;}
</style>
<path class="st0" d="M16.2,25.5h-2.7c-0.3,0-0.6-0.1-0.8-0.3L3.1,13.4v11.4c0,0.4-0.3,0.7-0.6,0.7H0.6c-0.4,0-0.6-0.3-0.6-0.7V0.9
	c0-0.4,0.3-0.6,0.6-0.6h1.8c0.4,0,0.6,0.3,0.7,0.6v10.9l9.8-11.3c0.2-0.2,0.4-0.3,0.7-0.3H16c0.4,0,0.5,0.2,0.5,0.4
	c0,0.1-0.1,0.3-0.1,0.4L6.1,12.5L16.4,25c0.1,0.1,0.1,0.2,0.1,0.3C16.5,25.4,16.4,25.5,16.2,25.5z M33.5,25.3
	c-1.9,0.3-3.8,0.5-5.7,0.4c-4.2,0-9-2.2-9-10.5v-4.7c0-8.3,4.8-10.5,9-10.5c1.9,0,3.8,0.2,5.7,0.5c0.3,0,0.5,0.1,0.5,0.4v1.7
	c0,0.2-0.1,0.4-0.4,0.4h-0.1c-1.2-0.1-3.8-0.3-5.7-0.3c-3.3,0-5.9,2-5.9,7.7v4.7c0,5.7,2.6,7.7,5.9,7.7c1.9,0,4.4-0.2,5.6-0.3h0.1
	c0.4,0,0.5,0.2,0.5,0.5v1.4C34.2,25,33.9,25.2,33.5,25.3z M50.9,25.3c-1.9,0.3-3.8,0.5-5.7,0.4c-4.2,0-9-2.2-9-10.5v-4.7
	c0-8.3,4.8-10.5,9-10.5c1.9,0,3.8,0.2,5.7,0.5c0.3,0,0.5,0.1,0.5,0.4v1.7c0,0.2-0.1,0.4-0.4,0.4H51c-1.2-0.1-3.8-0.3-5.7-0.3
	c-3.3,0-5.9,1.9-5.9,7.7v4.7c0,5.7,2.6,7.7,5.9,7.7c1.9,0,4.4-0.2,5.6-0.3H51c0.4,0,0.5,0.2,0.5,0.5v1.4
	C51.6,25,51.3,25.2,50.9,25.3z"/>
</svg>
