<svg xmlns="http://www.w3.org/2000/svg" viewBox="0 0 71.6 94.3"><defs><style>.cls-1{fill:#fff;}</style></defs><title>Asset 1</title><g id="Layer_2" data-name="Layer 2"><g id="Layer_1-2" data-name="Layer 1"><path class="cls-1" d="M28.38,18.68c-.23-.32-.16-.23.14-.63s.14-.22.61-.11.51.3.34.57-.61.3-1.1.17Zm21.24-10s2.85,3,2.53,8.93a23.89,23.89,0,0,1-3.39,10.6,15.21,15.21,0,0,0,4.09-10.92c-.21-6.83-3.23-8.6-3.23-8.6ZM67.83,52.42s.33-3-1.42-3.56-3.13-.79-3.72.68S61.61,53.71,61,54.87,59.23,57,58.45,57,56,56.9,56,56.9l-.44-1s1.92.76,2.89.28a3.69,3.69,0,0,0,2.3-3c.48-2,.1-5.38.87-7.33s2.52-4,4.59-3.81,3,.31,4.09,2.27c.9,1.69,1.46,4.21-.33,8.47-1.16,2.75-2.16,3.76-3,6.81-.93,3.31,1.52,3.71,2.58,6.34s.2,2.51,0,4.36A16,16,0,0,0,70,74.65L68.68,73.4A18.84,18.84,0,0,0,69,68.6c-.29-1.35-2.78-3.71-2.78-3.71s1.87,2.73,1.79,5a16.42,16.42,0,0,1-1.29,5.52s1.16-3.11,0-5.58c-.77-1.57-1-.86-1.92-3.17A10.39,10.39,0,0,1,64.17,63a7.68,7.68,0,0,0-.41,4c.39,2.16.7,1.94.31,3.32a9.94,9.94,0,0,1-1.67,3,4.89,4.89,0,0,0,.43-3.78c-.68-2.24-1.1-1.74-1-3.91A6,6,0,0,1,64,61.26s-1.66,0-2.64,2.3-.68,3.38-.68,3.38A4.72,4.72,0,0,1,61,62.45c1.45-2.25,1.76-1.4,3.7-4s3.62-3.69,3.91-6.63S68.5,46.33,67.19,46A3.76,3.76,0,0,0,63,48s2.21-1.5,3.89-.43,1,4.87,1,4.87Z"/><path class="cls-1" d="M71,51.71a32.5,32.5,0,0,1-1.65,4.48c-.82,1.88-1.85,4-.83,6.16.57,1.21,1.22,1.44,2.09,3.55a3.8,3.8,0,0,1-.17,3.57,4,4,0,0,0,1.13-3.3c-.41-1.73-2-3.57-2.34-4.57-.61-1.6.27-4,.77-5.36a14.17,14.17,0,0,0,1-4.54ZM36,.53A3.19,3.19,0,0,1,37.63,0a6.24,6.24,0,0,1,2.2.62A3.77,3.77,0,0,1,39.75,2a2.61,2.61,0,0,0-.18.78L38.5,3a2,2,0,0,0-.78-1.4A5.05,5.05,0,0,0,36,.56Zm-2.52.89a3.33,3.33,0,0,1,2.46.17,1.91,1.91,0,0,1,1.24,1.94,3.37,3.37,0,0,1-.8.71c-.62.44-.71.44-.71.44a2.13,2.13,0,0,0-1-.54C34,4,32.81,4,34,3.78c.72-.16,2,.32,2-.08a2.06,2.06,0,0,0-.84-1.54A10,10,0,0,0,33.5,1.4ZM43.55,3.09a6.81,6.81,0,0,1,1.33-1,9.33,9.33,0,0,1,2.38-.54A4.53,4.53,0,0,0,45.49,3a7.52,7.52,0,0,0-.87,1.6l-.45-.26L43.55,3ZM46,5.31a18.5,18.5,0,0,1,3.11-1.24,2.79,2.79,0,0,1,1.93,0c.8.26.87,0-.53.53a5.37,5.37,0,0,0-2.3,2c-.32-.3-.65-.59-1-.86A2.88,2.88,0,0,0,46,5.31Zm3.2,2.2s.44.44,1.86.36,1.58-.62,3-.18a3.75,3.75,0,0,1,2,1.52l-1.51.09a4.3,4.3,0,0,0-1.42-.62,6,6,0,0,0-1.58.09,4.09,4.09,0,0,1,1.85.8c.88.69.71,1,1.68,1.76s1.76.55,2.29,1.6l1.42,2.82a4.24,4.24,0,0,0-2-.53c-1,.09-1.31.53-1.84.27a10.9,10.9,0,0,1-1.24-.8l-.29-1.84a3.52,3.52,0,0,0,1.53.71,2.82,2.82,0,0,0,.71-.09s-1.41-.4-1.61-1.14S52.48,11,52.48,11a15.15,15.15,0,0,0-1.6-2.29c-.44-.36-1.68-1.16-1.68-1.16Zm9.55,12.3s-1.17-1.5-1.86-2.29l-.78-.89a1.11,1.11,0,0,1-.89.09c-.44-.18-1.6-.8-1.6-.8a6.85,6.85,0,0,1,.27,1.42,5.55,5.55,0,0,1-.09,1,1.76,1.76,0,0,1,1.42,0c.62.36.69-.27,1.4,0a11,11,0,0,1,2.13,1.51Zm-5-.36s.44-.35.8-.18a5.64,5.64,0,0,1,.71.44,2.19,2.19,0,0,0,.44,2.12c.87,1,2.47,2.22,2.65,4.16a7.57,7.57,0,0,1-.4,3.27s.56-1.7-1.33-3.88c-1.14-1.32-.61-.61-2.2-1a1.72,1.72,0,0,1-1.42-1.51s.14-.36.27-.79,2.21,2.39.17-1c-.1-.15,0-.4,0-.62.08-.53.21-1.06.21-1.06Z"/><path class="cls-1" d="M50.17,28.74s2.79-2,4.21-.34.3,2.18.15,4.36,2.18,3.13,2.18,3.13-1-.74.15-3.47c.57-1.37.46-6-2.89-6.27-.76,0-1.31-1.23-1.31-1.23a11.64,11.64,0,0,1-1.07,2c-.53.71-1.42,1.78-1.42,1.78ZM36,29.88s1.78-.44,2-.88.17-1,1.15-.78S40,30,41.62,30.33a14.24,14.24,0,0,0,4.51-.27S43,31.92,41.46,31.74,40.2,30.5,39.13,30A5.94,5.94,0,0,0,36,29.88Zm13.08-.33a6,6,0,0,0-2,1.49c-1.28,1.71-.31.59-1.45,2.08-.94,1.24-1.5,1.68-3.81,2.13a20.77,20.77,0,0,1-4-.45A6.86,6.86,0,0,0,42.65,36a8,8,0,0,0,4.25-1.25s-1,2.81-6.63,2.38a5,5,0,0,0-2.67.64A4,4,0,0,1,36.66,40a3.43,3.43,0,0,1-2,1.34s1.23.54,3.42-1.73c.87-.9.25-1.06,1.08-1.34.56-.19,3.61,0,6.54-.89,2.15-.67,3.11-3.44,3.29-4.55,0-.27-3.48,1.88-1-1.65.34-.59,1.08-1.63,1.08-1.63Z"/><path class="cls-1" d="M50.83,29.7c.7-.41,1.29-.84,2.08-.22,1.13.89-.17,1.72.09,3.4a6,6,0,0,0,.91,2.53A18,18,0,0,0,51.82,37,2.91,2.91,0,0,0,51,38.87a2.31,2.31,0,0,1,.67-2.63,3.37,3.37,0,0,0,.66-3.52c-1-2.46-2-1.81-3.3-.94-1.07.71.26-1.19,1.79-2.08ZM25.25,26.87a15.94,15.94,0,0,0-3-1.92,7.06,7.06,0,0,1-2.77-2.57,9.47,9.47,0,0,0-2.64-3.06c-1.32-.89-1.41-.53-4.94.1s-3.8.73-5.33.73c-2.44,0-3.46,1.23-2.35,1.42,2.11.35,2.48,1.9,3,1.27,1.22-1.36,2.65-1.52,4.5-1.61s2.83-.46,3.43.07.07.62,1,1.43.53.11,1.07,1.33.89,4.13,3.62,5.64,2.47,1.21,2.47,1.21A5.52,5.52,0,0,1,24,28.57c.62-.89,1.25-1.69,1.25-1.69Zm5.57,24.58A6.64,6.64,0,0,0,32,54.8c1.07,1.33,2.64,2.15,3.36,3a9.39,9.39,0,0,1,1.24,2.29s-1.08-.28-1.44,1.21.53,2.58.1,2.85a22,22,0,0,0-3.86,1.76c-1.94,1.22-6.65,4-7.43,4.85l-1.52,1.66a1.2,1.2,0,0,0-1.37-.2c-.89.36-1,.84-1,.84l-2-.24A7.4,7.4,0,0,0,19.29,71c.26-.8,1.32-.29,2.47-.92a31,31,0,0,0,4.57-3.33c2-1.67,4-2.91,3.61-4S27.27,61,26.13,58.14s-.43-5.47.44-5.92a21.21,21.21,0,0,1,4.26-.73ZM16.11,77.85v-.42A6.86,6.86,0,0,1,16.24,76a5.32,5.32,0,0,1,.67-2.06,1.41,1.41,0,0,1,1.1-.33,4.21,4.21,0,0,1,1,.12,1.36,1.36,0,0,1,.51.75,1.09,1.09,0,0,1,0,.36,2.9,2.9,0,0,1-.86,1.94A4.44,4.44,0,0,1,16.35,78h-.22v-.22ZM48.13,94A13.2,13.2,0,0,1,49,90.74c.42-.69.61-1,1.45-1.16s.94-.46.94-.46l.34-.45v.57s.09,1.6.09,2.06-.34.84-1,1.62a5.76,5.76,0,0,1-2.39,1.3l-.3.08Z"/><path class="cls-1" d="M54.52,62c1.19-4.15.57-3.52-.71-6.26s-1.45-3.53-3.15-5.16c0,0-.48-1-3.4-3.4a11.41,11.41,0,0,1-3.61-4.77,7.86,7.86,0,0,1-.53-3.07s-3,.17-3.5.59c-.82.63-2.9,3-5.22,2.9-4-.21-4.42-2.26-4.42-2.26s5.18,1.29,6.25-2.1c.28-.88-1.18-.54-3,.54-.72.44.11-2,2.85-2.15,3.71-.15,2-.7.22-1.13a8,8,0,0,0-4.15.49,8.82,8.82,0,0,1,2.64-2.1c2.82-1.63,5,.19,6.19.11a5.15,5.15,0,0,0,4-2.32,7.72,7.72,0,0,1-3.6,1.24c-3,.06-2.2-2-4.46-2.32-1.72-.22-3,1.67-3,1.67s-.65-2.85,2-3.61c1.84-.53.93-2.1,2.64-2.1,3.5,0,2.16,2.09,4.18,2.4a5,5,0,0,0,4.51-1.67c1.6-1.68,5-9.92,2.62-15.16A12.45,12.45,0,0,0,46.79,7a5.73,5.73,0,0,0-2.9-1.33c-.55-.11-1-1.4-1-1.4a12.06,12.06,0,0,0-.73-2.71c-.7-1.63-1.4-1.25-1.4-1.25a4.83,4.83,0,0,0,0,1.42,6.37,6.37,0,0,1,0,1.85s-.61,1.22-1,.79a1.43,1.43,0,0,1-.43-1A6.8,6.8,0,0,0,37.09,5c-1.64,1.5-2.23,1.66-2.73,3.39a13.48,13.48,0,0,1-3.63,4.35c-1.83,1.45-3.2,1.89-3.66,2.33-.77.49-.2.64,0,1.12s.12,1.12,1.59.75a2,2,0,0,1,1.56.64c1.21.81-.67,2.22,0,2.33,1.55.27,1.21-1.87,1.76-2.33a3.4,3.4,0,0,1,1.73-.74c.87-.24,1.31-.34,1.82-.1s2.84,1.31,4.57.51c4.11-.77,5.38-6.5,5.38-6.5V11c0,1,0,5.42-5.22,8.37a9.19,9.19,0,0,1-2.84,1.8c-.77.23-1.72-.24-3.44.67a17.93,17.93,0,0,0-2.84,2.07c-.88.57-2.12.5-2.63,1.14a14.84,14.84,0,0,0-2,2.84c-.68,1.35-1.73,2.29-1.83,3.38s-.1,2.33-.1,2.33h1.69l1.85.07a6,6,0,0,1,1.39-1.85c.94-1,1.94-1.77,2.15-1.45s-.54.37-1.34,1.45a5,5,0,0,0-1,3s-3.21-.17-5.57-.06-2-.16-2.89,0S16,36,15.2,36s-1.92-.26-2.76.52-.48,2.37-.51,2.89.23,5.63,0,6.18a4,4,0,0,0-.37,2.26,16.54,16.54,0,0,1,.88,1.73c.34,1,1.85-.61,2.39-1.42.19-.27.61-.68,0-1a5.32,5.32,0,0,1-.46-1,4.18,4.18,0,0,1-.42-3c.17-1.65-.09-2.43.15-2.74s0-.34.36-.61,1-1,1.55-1.08,2.83.38,4.76.27,4.5,0,6.6-.26c3.72-.37,4.28-1.48,4.68-1.18.23.17.72,1.55-1.67,2.15a8.06,8.06,0,0,1-3.78.21s1.55,2.59,2.7,4.73,1.52,4.29,2.8,6c.63,1.58-.11,3.39,3.45,5.56C36.84,57,37.91,60,37.91,60c.36.25,0,.71,1,.51a2.22,2.22,0,0,1,1.56.19s-.2-.5.39-2.73a26.23,26.23,0,0,1,2.14-5,20.56,20.56,0,0,0-1.1,7c.1,3.91.39,5.38,1.56,7.72s1.31,2,4,4.43,3,2.85,3.23,5.08a16.36,16.36,0,0,1,0,4.84c-.28,2.35-.06,3.37-1,5.32-.28.61-.78,1.34-.1,1.54s.73-.41,1.51-1.09,1.8-.19,1.8-2.25-.6-1.42-.21-4.75,1.57-4.63,1.27-5.7-1.35-.82-1.74-2.6-.49-4.89-1.37-5.86S53,67.44,54.52,62ZM30.6,16.09a2.88,2.88,0,0,1-1.11.51,6,6,0,0,1,.07-.73l-.45.06h-.68c-.11-.94,1-1.3,1.8-1.06a.71.71,0,0,1,.59.81A.72.72,0,0,1,30.6,16.09Zm9.9-6.75c-.64.66-2.55.8-2.94.8a2.3,2.3,0,0,1-1-.4c-.33-.18,0-.44.1-.47a3,3,0,0,0,.4-.31,1.24,1.24,0,0,1,.41-.38.76.76,0,0,1,.62.12,1.52,1.52,0,0,0,.42.16,1.42,1.42,0,0,1,.08.18h-.25c-.17,0-.34-.19-.49-.14s-.08.33-.08.32a.63.63,0,0,0,.54.31,3.16,3.16,0,0,0,1.46-1.09c0-.06-1.8-.2-2.12-.24s-.22-.33,0-.33,2.49-.17,2.49-.17a.89.89,0,0,1,.48.35C40.79,8.35,41.13,8.68,40.5,9.34ZM.23,26.24A.4.4,0,0,1,0,25.85a5,5,0,0,1,2-2.94,2.77,2.77,0,0,1,1.7-.62,2.21,2.21,0,0,1,1.1.27l.2.14-.17.18-.63.64c-.28.27-.36.89-.74,2-.32.59-1.67.72-2.6.77a2.12,2.12,0,0,1-.61-.07Z"/><path class="cls-1" d="M16.32,51.52v-.06h-.07A7.75,7.75,0,0,1,14.84,51c-.26-.09-.39-.8-.39-.8v-.36l-.29.22a2.65,2.65,0,0,0-1,1.79A1.63,1.63,0,0,0,13.61,53a5.47,5.47,0,0,0,1.78,1.5v-.12a2.34,2.34,0,0,0,1.11.35.74.74,0,0,0,.21,0h.14v-.14s.07-.65.07-1.2V53.1A3.13,3.13,0,0,0,16.32,51.52Z"/></g></g></svg>