<?xml version="1.0" encoding="utf-8"?>
<!-- Generator: Adobe Illustrator 23.1.1, SVG Export Plug-In . SVG Version: 6.00 Build 0)  -->
<svg version="1.1" id="Layer_1" focusable="false" xmlns="http://www.w3.org/2000/svg" xmlns:xlink="http://www.w3.org/1999/xlink"
	 x="0px" y="0px" viewBox="0 0 29.5 26.6" style="enable-background:new 0 0 29.5 26.6;" xml:space="preserve">
<style type="text/css">
	.st0{fill:#910766;}
</style>
<path class="st0" d="M27.9,18c-0.9,0-1.6,0.7-1.5,1.6c0,0.9,0.7,1.6,1.6,1.5c0.9,0,1.5-0.7,1.5-1.6C29.5,18.7,28.8,18,27.9,18
	C27.9,18,27.9,18,27.9,18z M15.7,0C9.8,0,5.1,4.7,5.1,10.5c0,2.5,0.9,4.9,2.5,6.8l-7.2,7.1c-0.5,0.5-0.5,1.3,0,1.8c0,0,0,0,0,0
	c0.2,0.3,0.6,0.4,0.9,0.4c0.3,0,0.7-0.1,0.9-0.4l7.3-7.2c4.8,3.4,11.4,2.3,14.8-2.5c1.3-1.8,2-3.9,2-6.1C26.2,4.7,21.5,0,15.7,0z
	 M15.7,18.4c-4.4-0.1-7.8-3.6-7.8-8s3.6-7.8,8-7.8c4.3,0.1,7.8,3.6,7.8,7.9C23.6,14.9,20.1,18.4,15.7,18.4
	C15.7,18.4,15.7,18.4,15.7,18.4L15.7,18.4z"/>
</svg>
