<?xml version="1.0" encoding="utf-8"?>
<!-- Generator: Adobe Illustrator 23.1.1, SVG Export Plug-In . SVG Version: 6.00 Build 0)  -->
<svg version="1.1" id="Layer_1" focusable="false" xmlns="http://www.w3.org/2000/svg" xmlns:xlink="http://www.w3.org/1999/xlink"
	 x="0px" y="0px" viewBox="0 0 39.9 40" style="enable-background:new 0 0 39.9 40;" xml:space="preserve">
<style type="text/css">
	.st0{fill:#FFFFFF;}
</style>
<path class="st0" d="M33.5,5.4c4.3,3.9,6.4,8.8,6.4,14.6c0,3.8-1,7.3-3.1,10.6C34,35.1,30,38,25,39.4V26.5h4.2l0.6-5.1H25V18
	c0.1-1.2,0.9-2,2.5-2.4H30V11c-0.8-0.1-2.1-0.2-3.7-0.2c-0.7,0-1.5,0.1-2.2,0.3c-2.8,0.8-4.2,2.9-4.2,6.2v4h-4.4v5.1h4.4V40
	c-5.2-0.1-9.8-1.8-13.6-5.3C2.1,30.8,0,25.9,0,20c0-5.2,1.7-9.7,5.2-13.6C9.2,2.1,14,0,19.8,0C25.1,0,29.7,1.8,33.5,5.4z"/>
</svg>
