<?xml version="1.0" encoding="utf-8"?>
<!-- Generator: Adobe Illustrator 23.1.1, SVG Export Plug-In . SVG Version: 6.00 Build 0)  -->
<svg version="1.1" id="Layer_1" focusable="false" xmlns="http://www.w3.org/2000/svg" xmlns:xlink="http://www.w3.org/1999/xlink"
	 x="0px" y="0px" viewBox="0 0 39.9 39.9" style="enable-background:new 0 0 39.9 39.9;" xml:space="preserve">
<style type="text/css">
	.st0{fill:#FFFFFF;}
</style>
<path class="st0" d="M33.6,5.4c4.2,3.9,6.3,8.8,6.3,14.6c0,5.2-1.8,9.8-5.4,13.7c-4,4.2-8.9,6.3-14.6,6.3c-5.2,0-9.7-1.8-13.6-5.4
	C2.1,30.6,0,25.7,0,19.9c0-4,1.1-7.7,3.3-11l0.1-0.2l0.2-0.1C4.2,7.8,4.8,7,5.4,6.3C9.4,2.1,14.2,0,19.9,0C25.2,0,29.8,1.8,33.6,5.4
	z M32.6,13.3c-0.8,0.3-1.7,0.6-2.8,0.8c1-0.7,1.7-1.6,2.1-2.7c-1.1,0.6-2.1,1-3,1.2c-0.9-0.9-2.1-1.4-3.5-1.5
	c-0.7,0-1.5,0.2-2.2,0.5c-1.8,0.9-2.6,2.3-2.6,4.3c0,0.2,0.1,0.6,0.2,1.1c-4-0.3-7.4-1.9-10-5.1c-0.4,0.7-0.6,1.5-0.6,2.4
	c0.1,1.7,0.8,3.1,2.2,4c-1.4-0.1-2.1-0.3-2.1-0.6v0.1c0,0.5,0.1,0.9,0.2,1.4c0.5,1.9,1.7,3,3.6,3.3c-0.6,0.1-1,0.2-1.3,0.2h-0.5
	c-0.2-0.1-0.4-0.1-0.5-0.1c0.1,0.2,0.2,0.4,0.3,0.6c0.9,1.8,2.3,2.7,4.2,2.7c-1.8,1.3-3.8,2-6,2c-0.5,0-0.9,0-1.2-0.1
	c2.2,1.4,4.6,2.1,7.4,2.2c3.7,0,6.8-1.2,9.4-3.7c2.9-2.8,4.3-6.1,4.3-10v-0.6C31,15.2,31.8,14.3,32.6,13.3z"/>
</svg>
