<?xml version="1.0" encoding="utf-8"?>
<!-- Generator: Adobe Illustrator 23.1.1, SVG Export Plug-In . SVG Version: 6.00 Build 0)  -->
<svg version="1.1" id="Layer_1" focusable="false" xmlns="http://www.w3.org/2000/svg" xmlns:xlink="http://www.w3.org/1999/xlink"
	 x="0px" y="0px" viewBox="0 0 39.9 39.9" style="enable-background:new 0 0 39.9 39.9;" xml:space="preserve">
<style type="text/css">
	.st0{fill:#FFFFFF;}
</style>
<path class="st0" d="M33.6,5.4c4.2,3.9,6.3,8.8,6.3,14.6c0,5.2-1.8,9.8-5.4,13.7c-4,4.2-8.9,6.3-14.6,6.3c-5.2,0-9.7-1.8-13.6-5.4
	C2.1,30.6,0,25.7,0,19.9c0-5.2,1.8-9.7,5.4-13.5C9.3,2.1,14.2,0,19.9,0C25.2,0,29.8,1.8,33.6,5.4z M36.3,21.2v-2.5
	c-0.2-3.5-0.3-5.2-0.3-5.3L36,12.8c-0.1-0.4-0.2-0.8-0.4-1.4c-0.2-0.5-0.5-0.9-0.8-1.2c-0.7-0.7-1.8-1.2-3.3-1.4
	c-0.4-0.1-0.9-0.1-1.3-0.1L19.9,8.6c-4.6-0.1-8.5-0.1-11.5,0.2L7.9,8.9c-0.3,0-0.5,0-0.6,0C7.2,8.9,6.9,9,6.7,9.1
	C6.4,9.2,6.1,9.3,5.9,9.5s-0.5,0.4-0.7,0.6c-0.3,0.3-0.5,0.6-0.7,1.1l-0.6,2.2l-0.4,5.3v2.5c0.3,3.3,0.4,5.1,0.4,5.4
	C4,28,4.5,29.1,5.1,29.8c0.7,0.7,1.7,1.1,3.1,1.3c0.2,0.1,0.4,0.1,0.5,0.1c7.4,0.2,11.2,0.3,11.2,0.3c4.6,0,8.5-0.1,11.5-0.3
	l0.3-0.1h0.4c0,0,0.2,0,0.5-0.1s0.4-0.1,0.5-0.2c0.1,0,0.3-0.1,0.5-0.2c0.2-0.1,0.4-0.2,0.6-0.4c0.2-0.1,0.3-0.3,0.5-0.5
	c0.2-0.3,0.4-0.6,0.6-1l0.6-2.3C36,26.5,36.3,21.2,36.3,21.2z M25.6,19.6l-8.9,4.7v-0.5h-0.2l0.1-9l0.1,0.2L25.6,19.6z"/>
</svg>
