<?xml version="1.0" encoding="utf-8"?>
<!-- Generator: Adobe Illustrator 23.1.1, SVG Export Plug-In . SVG Version: 6.00 Build 0)  -->
<svg version="1.1" id="Layer_1" focusable="false" xmlns="http://www.w3.org/2000/svg" xmlns:xlink="http://www.w3.org/1999/xlink"
	 x="0px" y="0px" viewBox="0 0 7.5 12" style="enable-background:new 0 0 7.5 12;" xml:space="preserve">
<style type="text/css">
	.st0{fill:#EEF6F8;}
</style>
<path class="st0" d="M7.5,6c0,0.3-0.1,0.5-0.3,0.7l-5,5c-0.2,0.2-0.4,0.3-0.7,0.3s-0.5-0.1-0.7-0.3l-0.6-0.6C0.1,10.9,0,10.7,0,10.4
	c0-0.3,0.1-0.5,0.3-0.7L4,6L0.3,2.3C0.1,2.1,0,1.9,0,1.6c0-0.3,0.1-0.5,0.3-0.7l0.6-0.6C1,0.1,1.3,0.1,1.5,0.1s0.5,0.1,0.7,0.3l5,5
	C7.4,5.5,7.5,5.7,7.5,6z"/>
</svg>
